<?xml version="1.0" encoding="utf-8"?>
<!-- Generator: Adobe Illustrator 27.1.1, SVG Export Plug-In . SVG Version: 6.00 Build 0)  -->
<svg version="1.1" id="Layer_1" xmlns="http://www.w3.org/2000/svg" xmlns:xlink="http://www.w3.org/1999/xlink" x="0px" y="0px"
	 viewBox="0 0 97.2 138" style="enable-background:new 0 0 97.2 138;" xml:space="preserve">
<style type="text/css">
	.st0{fill:#6F7AD3;}
	.st1{fill:#1ECAD3;}
</style>
<g>
	<g>
		<g>
			<path class="st0" d="M24.3,120.2c-0.7,0-1.3-0.3-1.8-0.9c-0.8-1-0.6-2.4,0.4-3.2c8.9-7,17.8-9.8,26.5-12.5
				c10.4-3.3,20.2-6.4,30.2-16.3c7.8-7.7,11.7-17.5,11-27.5c-0.8-10.8-6.8-21-17-28.5c-10-7.3-17.7-9.6-25.3-11.7
				c-8.4-2.4-17-4.9-27.9-14.2c-1-0.8-1.1-2.2-0.3-3.2C21,1.3,22.4,1.2,23.4,2c10.2,8.7,18,10.9,26.2,13.3
				c7.9,2.3,16.1,4.6,26.7,12.5c11.2,8.3,17.9,19.6,18.8,31.8c0.8,11.4-3.6,22.4-12.3,31c-10.8,10.7-21.6,14.1-32,17.3
				c-8.6,2.7-16.8,5.3-25,11.7C25.3,120,24.8,120.2,24.3,120.2z"/>
			<g id="XMLID_10_">
				<g>
					<path class="st1" d="M72.6,57.2c2.3,0,4.2,1.9,4.2,4.2c0,2.3-1.9,4.2-4.2,4.2s-4.1-1.9-4.1-4.2C68.5,59.1,70.3,57.2,72.6,57.2z
						"/>
					<path class="st1" d="M81.1,61.4c0-4.7-3.8-8.5-8.5-8.5c-4.7,0-8.5,3.8-8.5,8.5s3.8,8.5,8.5,8.5C77.3,70,81.1,66.1,81.1,61.4z
						 M84,53.3v15.8c0,0.8-0.7,1.5-1.5,1.5c-0.8,0-1.5-0.7-1.5-1.5v0c-2.1,2.3-5.2,3.8-8.5,3.8c-6.3,0-11.5-5.1-11.5-11.4
						c0-6.3,5.1-11.4,11.5-11.4c3.4,0,6.4,1.5,8.5,3.8v-0.5c0-0.8,0.6-1.5,1.5-1.5C83.4,51.9,84,52.5,84,53.3z"/>
					<path class="st0" d="M58.5,75.2c1.4,0,1.6,0.8,1.6,2.1c0,1.6-2.2,10.2-11.2,10.4l-0.1,0c-9.2-0.1-11.3-8.8-11.4-10.4
						c0-1.3,0.2-2.1,1.6-2.1h8.9h0.7H58.5z"/>
					<path class="st1" d="M37.3,60.5C37.9,53.3,43.7,50,48.8,50c2.5,0,5.2,0.8,7.4,2.6c2.1,1.7,3.7,4.4,4,8v0.1v7.7
						c0,0.8-0.6,1.5-1.5,1.5s-1.5-0.7-1.5-1.5v-7.7c-0.5-5.4-4.6-7.8-8.5-7.8c-2,0-4,0.6-5.6,1.9c-1.6,1.3-2.8,3.2-3,5.9v7.7
						c0,0.8-0.7,1.5-1.5,1.5c-0.8,0-1.5-0.7-1.5-1.5V60.5z"/>
					<path class="st1" d="M24.9,57.2c2.3,0,4.2,1.9,4.2,4.2c0,2.3-1.9,4.2-4.2,4.2c-2.3,0-4.2-1.9-4.2-4.2
						C20.8,59.1,22.6,57.2,24.9,57.2z"/>
					<path class="st1" d="M24.9,70c4.7,0,8.5-3.8,8.5-8.5s-3.8-8.5-8.5-8.5c-4.7,0-8.5,3.8-8.5,8.5S20.2,70,24.9,70z M36.4,42v26.4
						c0,0.8-0.7,1.5-1.5,1.5c-0.6,0-1.2-0.4-1.3-1c-2.1,2.4-5.2,3.9-8.6,3.9c-6.3,0-11.4-5.1-11.4-11.4c0-6.3,5.1-11.4,11.4-11.4
						c3.4,0,6.4,1.5,8.5,3.8V42c0-0.8,0.6-1.5,1.4-1.5C35.7,40.6,36.4,41.2,36.4,42z"/>
				</g>
				<g>
				</g>
			</g>
			<g>
				<path class="st1" d="M23,131v2.9c0,0.5-0.1,0.8-0.3,1c-0.2,0.2-0.5,0.3-0.8,0.3c-0.3,0-0.6-0.1-0.8-0.3c-0.2-0.2-0.3-0.6-0.3-1
					v-3.5c0-0.5,0-1-0.1-1.3c0-0.3-0.1-0.6-0.3-0.8c-0.2-0.2-0.4-0.3-0.8-0.3c-0.7,0-1.2,0.2-1.4,0.7c-0.2,0.5-0.3,1.2-0.3,2.1v3
					c0,0.5-0.1,0.8-0.3,1c-0.2,0.2-0.5,0.3-0.8,0.3c-0.3,0-0.6-0.1-0.8-0.3c-0.2-0.2-0.3-0.6-0.3-1v-6.3c0-0.4,0.1-0.7,0.3-0.9
					c0.2-0.2,0.4-0.3,0.7-0.3c0.3,0,0.5,0.1,0.7,0.3c0.2,0.2,0.3,0.5,0.3,0.8v0.2c0.4-0.5,0.8-0.8,1.2-1c0.4-0.2,0.9-0.3,1.4-0.3
					c0.6,0,1,0.1,1.4,0.3c0.4,0.2,0.7,0.6,1,1c0.4-0.4,0.8-0.8,1.2-1c0.4-0.2,0.9-0.3,1.4-0.3c0.6,0,1.1,0.1,1.5,0.4
					c0.4,0.2,0.8,0.6,1,1c0.2,0.4,0.3,1,0.3,1.9v4.3c0,0.5-0.1,0.8-0.3,1c-0.2,0.2-0.5,0.3-0.8,0.3c-0.3,0-0.6-0.1-0.8-0.3
					c-0.2-0.2-0.3-0.6-0.3-1v-3.7c0-0.5,0-0.8-0.1-1.1c0-0.3-0.1-0.5-0.3-0.7c-0.2-0.2-0.4-0.3-0.8-0.3c-0.3,0-0.6,0.1-0.8,0.3
					c-0.3,0.2-0.5,0.4-0.6,0.7C23.1,129.4,23,130,23,131z"/>
				<path class="st1" d="M31.3,125.3c-0.3,0-0.6-0.1-0.8-0.3c-0.2-0.2-0.3-0.4-0.3-0.8c0-0.3,0.1-0.6,0.3-0.8
					c0.2-0.2,0.5-0.3,0.8-0.3c0.3,0,0.5,0.1,0.8,0.3c0.2,0.2,0.3,0.4,0.3,0.8c0,0.3-0.1,0.6-0.3,0.8
					C31.9,125.2,31.6,125.3,31.3,125.3z M32.4,127.6v6.3c0,0.4-0.1,0.8-0.3,1c-0.2,0.2-0.5,0.3-0.8,0.3c-0.3,0-0.6-0.1-0.8-0.3
					c-0.2-0.2-0.3-0.6-0.3-1v-6.2c0-0.4,0.1-0.8,0.3-1c0.2-0.2,0.5-0.3,0.8-0.3c0.3,0,0.6,0.1,0.8,0.3
					C32.3,126.9,32.4,127.2,32.4,127.6z"/>
				<path class="st1" d="M36.9,132.1v1.8c0,0.4-0.1,0.8-0.3,1c-0.2,0.2-0.5,0.3-0.8,0.3c-0.3,0-0.6-0.1-0.8-0.3
					c-0.2-0.2-0.3-0.6-0.3-1v-6.1c0-1,0.4-1.5,1.1-1.5c0.4,0,0.6,0.1,0.8,0.3c0.2,0.2,0.2,0.6,0.3,1c0.3-0.4,0.5-0.8,0.8-1
					c0.3-0.2,0.6-0.3,1.1-0.3c0.5,0,0.9,0.1,1.3,0.3c0.4,0.2,0.6,0.5,0.6,0.9c0,0.3-0.1,0.5-0.3,0.7c-0.2,0.2-0.4,0.3-0.6,0.3
					c-0.1,0-0.3-0.1-0.6-0.1c-0.3-0.1-0.6-0.1-0.8-0.1c-0.3,0-0.6,0.1-0.8,0.2c-0.2,0.2-0.4,0.4-0.5,0.8c-0.1,0.3-0.2,0.7-0.2,1.2
					C36.9,130.9,36.9,131.4,36.9,132.1z"/>
				<path class="st1" d="M47.4,134c-0.5,0.4-1,0.7-1.5,0.9c-0.5,0.2-1,0.3-1.7,0.3c-0.6,0-1.1-0.1-1.5-0.3c-0.4-0.2-0.8-0.5-1-0.9
					c-0.2-0.4-0.3-0.8-0.3-1.2c0-0.6,0.2-1.1,0.6-1.5c0.4-0.4,0.9-0.7,1.6-0.9c0.1,0,0.5-0.1,1-0.2c0.5-0.1,1-0.2,1.4-0.3
					c0.4-0.1,0.8-0.2,1.3-0.3c0-0.6-0.1-1-0.4-1.3c-0.2-0.3-0.6-0.4-1.3-0.4c-0.6,0-1,0.1-1.3,0.2c-0.3,0.2-0.5,0.4-0.7,0.7
					c-0.2,0.3-0.3,0.5-0.4,0.6c-0.1,0.1-0.3,0.1-0.5,0.1c-0.2,0-0.5-0.1-0.6-0.2c-0.2-0.2-0.3-0.4-0.3-0.6c0-0.4,0.1-0.8,0.4-1.1
					c0.3-0.4,0.7-0.7,1.3-0.9c0.6-0.2,1.3-0.3,2.2-0.3c1,0,1.7,0.1,2.3,0.3c0.6,0.2,0.9,0.6,1.2,1.1c0.2,0.5,0.3,1.1,0.3,2
					c0,0.5,0,0.9,0,1.3c0,0.4,0,0.8,0,1.2c0,0.4,0.1,0.8,0.2,1.3c0.1,0.4,0.2,0.7,0.2,0.9c0,0.2-0.1,0.4-0.3,0.6
					c-0.2,0.2-0.4,0.3-0.7,0.3c-0.2,0-0.4-0.1-0.7-0.3C47.9,134.7,47.6,134.4,47.4,134z M47.2,130.8c-0.3,0.1-0.8,0.2-1.4,0.4
					c-0.6,0.1-1,0.2-1.3,0.3c-0.2,0.1-0.5,0.2-0.7,0.4c-0.2,0.2-0.3,0.4-0.3,0.7c0,0.3,0.1,0.6,0.4,0.8c0.3,0.2,0.6,0.3,1,0.3
					c0.4,0,0.8-0.1,1.2-0.3c0.4-0.2,0.6-0.4,0.8-0.7c0.2-0.3,0.3-0.9,0.3-1.6V130.8z"/>
				<path class="st1" d="M59.4,132.5c0,0.3-0.1,0.6-0.2,0.9c-0.2,0.3-0.4,0.6-0.7,0.9c-0.3,0.3-0.7,0.5-1.3,0.7
					c-0.5,0.2-1.1,0.3-1.7,0.3c-1.3,0-2.4-0.4-3.2-1.2c-0.8-0.8-1.1-1.8-1.1-3.2c0-0.9,0.2-1.7,0.5-2.4c0.3-0.7,0.8-1.2,1.5-1.6
					c0.7-0.4,1.4-0.6,2.3-0.6c0.6,0,1.1,0.1,1.6,0.2c0.5,0.2,0.9,0.4,1.2,0.6c0.3,0.3,0.6,0.5,0.8,0.8c0.2,0.3,0.3,0.6,0.3,0.8
					c0,0.3-0.1,0.5-0.3,0.7c-0.2,0.2-0.4,0.3-0.7,0.3c-0.2,0-0.3,0-0.5-0.1c-0.1-0.1-0.3-0.2-0.4-0.5c-0.3-0.4-0.5-0.7-0.8-0.9
					c-0.3-0.2-0.7-0.3-1.1-0.3c-0.6,0-1.2,0.3-1.6,0.8c-0.4,0.5-0.6,1.2-0.6,2.1c0,0.4,0.1,0.8,0.2,1.1c0.1,0.3,0.2,0.6,0.4,0.9
					c0.2,0.2,0.4,0.4,0.7,0.6c0.3,0.1,0.6,0.2,0.9,0.2c0.4,0,0.8-0.1,1.1-0.3c0.3-0.2,0.6-0.5,0.8-0.9c0.1-0.2,0.3-0.4,0.4-0.6
					c0.2-0.1,0.3-0.2,0.6-0.2c0.3,0,0.5,0.1,0.7,0.3C59.3,132.1,59.4,132.3,59.4,132.5z"/>
				<path class="st1" d="M61.3,133.9v-9.5c0-0.4,0.1-0.8,0.3-1c0.2-0.2,0.5-0.3,0.8-0.3c0.3,0,0.6,0.1,0.8,0.3
					c0.2,0.2,0.3,0.6,0.3,1v9.5c0,0.4-0.1,0.8-0.3,1c-0.2,0.2-0.5,0.3-0.8,0.3c-0.3,0-0.6-0.1-0.8-0.3
					C61.4,134.7,61.3,134.3,61.3,133.9z"/>
				<path class="st1" d="M71.9,131.3h-4.3c0,0.5,0.1,0.9,0.3,1.3c0.2,0.4,0.5,0.7,0.8,0.9c0.3,0.2,0.7,0.3,1.1,0.3
					c0.3,0,0.5,0,0.7-0.1c0.2-0.1,0.4-0.2,0.6-0.3c0.2-0.1,0.4-0.3,0.6-0.4c0.2-0.1,0.4-0.4,0.7-0.6c0.1-0.1,0.3-0.1,0.5-0.1
					c0.2,0,0.4,0.1,0.5,0.2c0.1,0.1,0.2,0.3,0.2,0.5c0,0.2-0.1,0.4-0.2,0.7c-0.2,0.3-0.4,0.5-0.7,0.8c-0.3,0.2-0.7,0.4-1.2,0.6
					c-0.5,0.2-1,0.2-1.6,0.2c-1.4,0-2.5-0.4-3.3-1.2c-0.8-0.8-1.2-1.9-1.2-3.3c0-0.6,0.1-1.2,0.3-1.8c0.2-0.6,0.5-1,0.8-1.4
					c0.4-0.4,0.8-0.7,1.4-0.9c0.5-0.2,1.1-0.3,1.8-0.3c0.9,0,1.6,0.2,2.2,0.5c0.6,0.4,1.1,0.8,1.4,1.4c0.3,0.6,0.5,1.2,0.5,1.7
					c0,0.5-0.2,0.9-0.5,1.1C72.9,131.3,72.5,131.3,71.9,131.3z M67.6,130.1h4c-0.1-0.8-0.3-1.3-0.6-1.7c-0.3-0.4-0.8-0.6-1.4-0.6
					c-0.5,0-1,0.2-1.3,0.6C67.9,128.8,67.7,129.4,67.6,130.1z"/>
				<path class="st1" d="M82.6,132.4c0,0.6-0.1,1.1-0.4,1.5c-0.3,0.4-0.7,0.8-1.3,1c-0.6,0.2-1.3,0.3-2.1,0.3c-0.8,0-1.5-0.1-2-0.4
					c-0.6-0.2-1-0.5-1.2-0.9c-0.3-0.4-0.4-0.7-0.4-1.1c0-0.2,0.1-0.4,0.3-0.6c0.2-0.2,0.4-0.3,0.7-0.3c0.2,0,0.4,0.1,0.5,0.2
					c0.1,0.1,0.2,0.3,0.4,0.5c0.2,0.4,0.5,0.7,0.8,0.9c0.3,0.2,0.7,0.3,1.3,0.3c0.4,0,0.8-0.1,1.1-0.3c0.3-0.2,0.4-0.4,0.4-0.7
					c0-0.4-0.1-0.7-0.4-0.8c-0.3-0.2-0.8-0.3-1.4-0.5c-0.7-0.2-1.4-0.4-1.8-0.6c-0.5-0.2-0.9-0.5-1.1-0.8c-0.3-0.3-0.4-0.7-0.4-1.2
					c0-0.4,0.1-0.8,0.4-1.2c0.3-0.4,0.6-0.7,1.2-0.9c0.5-0.2,1.1-0.3,1.8-0.3c0.6,0,1.1,0.1,1.5,0.2c0.4,0.1,0.8,0.3,1.1,0.5
					c0.3,0.2,0.5,0.4,0.7,0.7c0.2,0.2,0.2,0.5,0.2,0.7c0,0.2-0.1,0.5-0.3,0.6c-0.2,0.2-0.4,0.2-0.7,0.2c-0.2,0-0.4-0.1-0.6-0.2
					c-0.2-0.1-0.3-0.3-0.5-0.6c-0.2-0.2-0.4-0.4-0.6-0.5c-0.2-0.1-0.5-0.2-0.9-0.2c-0.4,0-0.7,0.1-1,0.3c-0.3,0.2-0.4,0.4-0.4,0.6
					c0,0.2,0.1,0.4,0.3,0.6c0.2,0.1,0.5,0.3,0.8,0.4c0.3,0.1,0.8,0.2,1.3,0.4c0.7,0.2,1.2,0.4,1.7,0.6c0.4,0.2,0.8,0.5,1,0.8
					C82.4,131.6,82.6,132,82.6,132.4z"/>
			</g>
			<path class="st1" d="M73.5,120.2c-0.5,0-1-0.1-1.4-0.5c-7.8-6.1-15.8-8.6-24.2-11.3c-10.6-3.3-21.7-6.8-32.8-17.8
				C6.3,82,1.9,70.9,2.7,59.6c0.9-12.2,7.6-23.5,18.8-31.8c10.6-7.8,18.8-10.2,26.7-12.4c8.3-2.4,16.1-4.6,26.3-13.3
				c0.9-0.8,2.4-0.7,3.2,0.2c0.8,1,0.7,2.4-0.2,3.2c-10.9,9.3-19.6,11.8-27.9,14.2c-7.6,2.2-15.4,4.4-25.3,11.7
				C14,38.9,8,49.1,7.3,59.9c-0.7,10,3.2,19.8,11,27.5c10.4,10.3,20.9,13.6,31,16.7c8.5,2.6,17.2,5.4,25.7,12c1,0.8,1.2,2.2,0.4,3.2
				C74.9,119.9,74.2,120.2,73.5,120.2z"/>
		</g>
	</g>
	<path class="st1" d="M86.3,125.4c0.4,0,0.7,0.1,1,0.2c0.3,0.1,0.6,0.3,0.9,0.6c0.2,0.2,0.4,0.5,0.6,0.9c0.1,0.3,0.2,0.7,0.2,1
		c0,0.5-0.1,0.9-0.4,1.3c-0.2,0.4-0.6,0.7-1,1c-0.4,0.2-0.9,0.4-1.3,0.4c-0.5,0-0.9-0.1-1.3-0.4c-0.4-0.2-0.7-0.6-1-1
		c-0.2-0.4-0.4-0.9-0.4-1.3c0-0.5,0.1-0.9,0.4-1.3c0.2-0.4,0.6-0.7,1-1C85.4,125.5,85.8,125.4,86.3,125.4z M86.3,125.9
		c-0.4,0-0.7,0.1-1.1,0.3c-0.3,0.2-0.6,0.5-0.8,0.8c-0.2,0.3-0.3,0.7-0.3,1.1c0,0.4,0.1,0.7,0.3,1.1c0.2,0.3,0.5,0.6,0.8,0.8
		c0.3,0.2,0.7,0.3,1.1,0.3c0.4,0,0.8-0.1,1.1-0.3c0.3-0.2,0.6-0.5,0.8-0.8c0.2-0.3,0.3-0.7,0.3-1.1c0-0.4-0.1-0.8-0.3-1.1
		c-0.2-0.3-0.5-0.6-0.8-0.8C87.1,126,86.7,125.9,86.3,125.9z M85.7,129.5h-0.6v-2.8h1.3c0.2,0,0.4,0,0.5,0.1
		c0.1,0.1,0.2,0.2,0.3,0.3c0.1,0.1,0.1,0.3,0.1,0.4c0,0.2-0.1,0.4-0.2,0.5c-0.1,0.1-0.3,0.2-0.6,0.3c0.1,0,0.2,0.1,0.3,0.2
		c0.1,0.1,0.2,0.2,0.3,0.5l0.3,0.6h-0.7l-0.2-0.5c-0.1-0.2-0.2-0.4-0.3-0.5c-0.1-0.1-0.2-0.2-0.2-0.2c-0.1,0-0.2-0.1-0.3-0.1h-0.2
		V129.5z M85.7,127.1v0.8h0.5c0.2,0,0.4,0,0.5-0.1c0.1-0.1,0.2-0.2,0.2-0.3c0-0.1,0-0.2-0.1-0.3c-0.1-0.1-0.2-0.1-0.4-0.1H85.7z"/>
</g>
</svg>
