<?xml version="1.0" encoding="utf-8"?>
<!-- Generator: Adobe Illustrator 27.1.1, SVG Export Plug-In . SVG Version: 6.00 Build 0)  -->
<svg version="1.1" id="Layer_1" xmlns="http://www.w3.org/2000/svg" xmlns:xlink="http://www.w3.org/1999/xlink" x="0px" y="0px"
	 viewBox="0 0 17.8 11.5" style="enable-background:new 0 0 17.8 11.5;" xml:space="preserve">
<style type="text/css">
	.st0{fill:#FFFFFF;}
</style>
<g id="zxRNcl.tif">
	<g>
		<path class="st0" d="M0.8,2.4c0.3-0.4,0.7-0.7,1-1.1c0.2-0.2,0.4-0.1,0.6,0c0.1,0,0.1,0.1,0.2,0.2c2,2,4.1,4.1,6.1,6.1
			c0,0,0.1,0.1,0.2,0.2C9,7.7,9,7.6,9,7.6c2-2,4.1-4.1,6.1-6.1c0,0,0.1-0.1,0.1-0.1c0.2-0.2,0.5-0.2,0.7,0c0.3,0.3,0.5,0.5,0.8,0.8
			c0.2,0.2,0.2,0.5,0,0.8c0,0-0.1,0.1-0.1,0.1c-2.4,2.4-4.9,4.9-7.3,7.3c0,0-0.1,0.1-0.1,0.1c-0.2,0.2-0.5,0.2-0.7,0
			c0,0-0.1-0.1-0.1-0.1C6,7.9,3.5,5.5,1.1,3C1,2.9,0.9,2.8,0.8,2.7C0.8,2.6,0.8,2.5,0.8,2.4z"/>
	</g>
</g>
</svg>
