<?xml version="1.0" encoding="utf-8"?>
<!-- Generator: Adobe Illustrator 27.1.1, SVG Export Plug-In . SVG Version: 6.00 Build 0)  -->
<svg version="1.1" id="Layer_1" xmlns="http://www.w3.org/2000/svg" xmlns:xlink="http://www.w3.org/1999/xlink" x="0px" y="0px"
	 viewBox="0 0 553.7 160.1" style="enable-background:new 0 0 553.7 160.1;" xml:space="preserve">
<style type="text/css">
	.st0{fill:#FFFFFF;}
</style>
<path class="st0" d="M34.5,115.5c0.9,1,1.9,1.9,2.6,3c1.9,3,4.1,5.7,7.4,7.2c-0.4,0.5-1.4,0.7-0.9,1.6c0.3,0.7,1.4,1.1,2.1,0.9
	c0.2-0.1,0.5-0.2,0.6-0.4c0.1-0.4,0.1-0.9,0.2-1.4c4.2,0.9,8.3,0.3,12.2-1.5c0.6-3.7,1.8-6.9,4.5-9.7c-0.7-0.1-1.2-0.2-1.7-0.3
	c-4.1-0.6-8.1-1.4-12-2.9c-8.9-3.4-14.8-9.6-17.6-18.7c-1.5-5-2-10.2-1.9-15.4c0.1-2.1,0.4-4.3,0.9-6.4c1-4.2,3-8,5.8-11.3
	c0.4-0.5,0.8-1,0.5-1.8c-1.9-5.9-1.4-11.8,0.6-17.6c0.3-0.8,0.7-1.1,1.6-1.1c2.5-0.1,4.9,0.6,7.2,1.4c3.9,1.4,7.4,3.4,10.8,5.7
	c0.6,0.4,1.1,0.6,1.9,0.4c11.6-2.9,23.1-2.9,34.7,0c0.8,0.2,1.3,0.1,2-0.4c3.4-2.2,6.9-4.2,10.7-5.6c2.4-0.9,4.9-1.5,7.5-1.4
	c0.6,0,1.1,0.2,1.3,0.9c2.1,5.8,2.7,11.6,0.8,17.6c-0.3,0.8-0.1,1.4,0.4,2c3.7,4.3,5.9,9.3,6.5,15c0.6,6.2,0.1,12.4-1.8,18.4
	c-2.5,8.3-7.8,14.1-15.7,17.6c-4,1.7-8.1,2.7-12.3,3.4c-1,0.2-2,0.3-3.1,0.5c0.1,0.2,0.1,0.3,0.2,0.4c3,3.1,4.2,7,4.4,11.2
	c0.2,4,0.1,8.1,0.1,12.1c0,3.2-0.1,6.5,0,9.7c0,2.7,1.6,4.1,4.2,3.9c0.5,0,1-0.2,1.5-0.3c11.6-4.1,21.7-10.5,29.9-19.6
	c15.8-17.5,22-38.1,18.5-61.4c-2.2-15-8.8-28.1-19.4-38.9C111.9,14.1,90.2,6.8,65.1,10.5c-16.9,2.5-31.2,10.3-42.6,23
	C6.7,51.2,0.7,72,4.6,95.3c3.2,19.4,13.2,34.9,28.9,46.7c5.9,4.4,12.5,7.8,19.5,10.2c3.3,1.1,5.6-0.5,5.6-4c0-3.9-0.1-7.9-0.1-11.8
	c0-0.4-0.1-0.7-0.1-0.9c-3,0.2-5.9,0.6-8.7,0.6c-7.5-0.3-13.3-3.2-16.3-10.6c-1.6-4.1-4.1-7.6-8-9.9c-0.7-0.4-1.3-1-1.8-1.6
	c-1-1.1-0.7-1.9,0.7-2.3c0.2-0.1,0.4-0.1,0.6-0.1C28.7,111.2,31.9,112.6,34.5,115.5c-0.3-0.1-0.5-0.3-0.9-0.3c-0.3,0-0.7,0-0.9,0.2
	c-0.1,0.2-0.1,0.6,0,0.9c0.1,0.3,0.4,0.6,0.6,0.7c0.3,0.1,0.8,0.2,1,0c0.2-0.1,0.2-0.6,0.2-0.9C34.6,116,34.5,115.8,34.5,115.5z
	 M226,111.3c-0.4,0.1-0.7,0.2-1,0.2c-4.1,0.7-8.1,0.9-12.2,0.5c-6.7-0.6-11.6-3.8-14.7-9.8c-1.3-2.5-2.2-5.1-2.7-7.9
	c-1.3-6.3-1.4-12.6-1-19c0.3-4,1-8,2.4-11.8c2-5.4,5.3-9.5,10.8-11.8c2.9-1.2,5.9-1.7,9-1.9c7-0.3,13.9,0.2,20.5,2.5
	c1.5,0.5,2.1,0.1,2.4-1.3c1.1-4.7,2.2-9.5,3.3-14.2c0.3-1.2,0.2-1.6-0.9-2.1c-1.4-0.7-2.9-1.4-4.4-1.9c-4.7-1.5-9.7-2.2-14.6-2.5
	c-6.5-0.4-13-0.4-19.4,1c-11.1,2.5-19.3,8.7-24.3,19c-2.8,5.7-4.3,11.8-5.1,18.1c-1.1,8.1-1.2,16.3-0.3,24.5
	c0.6,5.3,1.7,10.5,3.7,15.5c4.4,11,12.3,18.1,23.7,21.2c9.7,2.6,19.6,2.8,29.5,0.9c5.3-1,10.3-2.9,14.9-5.6c0.9-0.5,1.3-1.2,1.3-2.2
	c0-15.6,0-31.3,0-46.9c0-1.7-0.5-2.1-2.2-2.1c-10.1,0-20.1,0-30.2,0c-1.6,0-2,0.4-2,2.1c0,4.7,0,9.4,0,14.2c0,1.8,0.4,2.2,2.2,2.2
	c3.3,0,6.5,0,9.8,0c0.5,0,1,0,1.6,0C226,98.6,226,104.9,226,111.3z M359.3,69.7c0-0.7,0-1.2,0-1.8c0-10.5,0-21.1,0-31.6
	c0-1.9-0.4-2.3-2.2-2.3c-5.4,0-10.8,0-16.2,0c-1.8,0-2.2,0.4-2.2,2.2c0,0.1,0,0.3,0,0.4c0,30.2,0,60.5,0,90.7c0,0.4,0,0.9,0,1.3
	c0.1,0.8,0.6,1.3,1.4,1.4c0.4,0,0.8,0,1.2,0c5.1,0,10.3,0,15.4,0c2.4,0,2.6-0.2,2.6-2.7c0-12.2,0-24.5,0-36.7c0-0.6,0-1.2,0-1.8
	c2.2-0.3,26.5-0.2,27.6,0.1c0,0.5,0,1,0,1.5c0,4.8,0,9.5,0,14.3c0,7.7,0,15.3,0,23c0,1.7,0.4,2.2,1.9,2.2c5.6,0,11.3,0,16.9,0
	c1.3,0,1.8-0.5,1.9-1.8c0-0.3,0-0.7,0-1c0-30.2,0-60.4,0-90.5c0-0.5,0-1-0.1-1.4c-0.1-0.7-0.5-1.1-1.3-1.2c-0.4,0-0.8-0.1-1.2-0.1
	c-5.2,0-10.5,0-15.7,0c-0.4,0-0.8,0-1.2,0.1c-0.8,0.1-1.2,0.6-1.3,1.3c-0.1,0.4,0,0.9,0,1.3c0,10.4,0,20.9,0,31.3c0,0.6,0,1.1,0,1.8
	C377.7,69.7,368.6,69.7,359.3,69.7z M461.6,125.6c0.2,1,0.3,1.8,0.4,2.7c0.3,1.5,0.6,1.8,2.1,1.8c1.9,0,3.8,0,5.6,0
	c1.6,0,3.2,0,4.8,0c1.3,0,1.8-0.5,1.8-1.9c0-0.3,0-0.7,0-1c0-10.7,0-21.5,0-32.2c0-9.4,0-18.8,0-28.2c0-1.8-0.4-2.2-2.2-2.2
	c-5.3,0-10.7,0-16,0c-1.9,0-2.3,0.4-2.3,2.3c0,0.3,0,0.7,0,1c0,12.9,0,25.8,0,38.7c0,1.4,0,2.8,0,4.2c0,0.7-0.2,1.1-0.8,1.4
	c-3.9,2.2-8,3.3-12.5,2.6c-3-0.5-4.6-2-5.2-5c-0.2-1.3-0.3-2.6-0.3-3.9c0-12.8,0-25.6,0-38.4c0-0.4,0-0.9,0-1.3
	c-0.1-1.1-0.6-1.5-1.7-1.6c-0.2,0-0.5,0-0.7,0c-5.3,0-10.7,0-16,0c-0.3,0-0.7,0-1,0c-0.8,0.2-1.2,0.6-1.3,1.5c0,0.3,0,0.7,0,1
	c0,14,0,27.9,0,41.9c0,3.2,0.3,6.4,1.2,9.6c1.8,5.9,5.5,9.9,11.4,11.8c5.1,1.7,10.4,1.8,15.7,1.3c5.6-0.6,10.8-2.5,15.7-5.4
	C460.7,126,461.1,125.8,461.6,125.6z M294.8,81.7c0,0.8,0,1.4,0,2c0,8.4,0,16.8,0,25.1c0,2.3,0.2,4.5,0.6,6.7
	c1.4,8,5.9,13.2,13.9,15.1c6.5,1.6,12.9,1.3,19.3-0.5c1.3-0.4,1.6-0.7,1.6-2.2c0-3.8,0-7.5,0-11.3c0-0.3,0-0.6-0.1-0.9
	c-0.2-0.8-0.7-1.3-1.5-1.3c-0.4,0-0.8,0.1-1.2,0.1c-2,0-4,0.2-5.9,0c-4.3-0.4-6.5-3-6.4-7c0.1-8.1,0-16.2,0-24.3c0-0.5,0-1,0.1-1.6
	c0.7,0,1.2,0,1.7,0c3.6,0,7.1,0,10.7,0c1.8,0,2.3-0.4,2.3-2.2c0-4.3,0-8.7,0-13c0-1.7-0.4-2.1-2.1-2.1c-3.7,0-7.3,0-11,0
	c-0.5,0-1,0-1.6-0.1c0-0.7,0-1.1,0-1.6c0-4.9,0-9.7,0-14.6c0-0.4,0-0.9,0-1.3c0-0.7-0.4-1-1.1-1c-0.3,0-0.6,0-0.9,0
	c-5.4,0-10.9,0-16.3,0c-0.4,0-0.8,0-1.2,0c-0.6,0.1-0.9,0.4-0.9,1c0,0.4,0,0.8,0,1.2c0,5.2,0,10.3,0,15.5c0,0.5,0,1,0,1.5
	c-0.5,0.2-0.9,0.3-1.3,0.4c-2.6,0.6-5.2,1.3-7.8,1.9c-1.3,0.3-1.6,0.7-1.6,2c0,3.5,0,7,0,10.5c0,1.5,0.5,1.9,2,2c2.4,0,4.7,0,7.1,0
	C293.6,81.7,294.1,81.7,294.8,81.7z M277.5,97c0-9.9,0-19.7,0-29.6c0-0.5,0-1.1-0.1-1.6c-0.1-0.8-0.6-1.3-1.4-1.4
	c-0.4,0-0.8,0-1.2,0c-5,0-10,0.1-15,0c-2.9-0.1-3.1,0.8-3.1,3.1c0,19.6,0,39.3,0,58.9c0,0.3,0,0.7,0,1c0.1,1.8,0.7,2.5,2.6,2.6
	c0.4,0,0.9,0,1.3,0c4.5,0,9,0,13.4,0c3.1,0,3.4-0.3,3.4-3.4C277.5,116.7,277.5,106.8,277.5,97z M267.3,36.1
	c-6.3,0-11.4,5.1-11.5,11.5c-0.1,6.3,5,11.6,11.3,11.6c6.3,0,11.5-5.1,11.6-11.6C278.8,41.3,273.7,36.1,267.3,36.1z M41.4,125.5
	c0-0.9-1-1.9-1.8-1.8c-0.6,0-0.9,0.3-0.9,0.9c0,0.8,1,1.8,1.8,1.7C41,126.2,41.3,125.9,41.4,125.5z M57.7,127.2
	c-1,0.1-1.7,0.2-2,0.9c-0.1,0.2,0,0.7,0.2,0.9c0.5,0.6,1.2,0.5,1.9,0.3c0.7-0.2,1.1-0.9,0.9-1.3C58.4,127.7,57.9,127.4,57.7,127.2z
	 M50.9,129.4c1.1,0,1.8-0.5,1.8-1.1c0-0.6-0.8-1.1-1.7-1c-0.3,0-0.7,0.1-0.9,0.3c-0.6,0.4-0.7,1.1,0,1.5
	C50.3,129.3,50.7,129.4,50.9,129.4z M37.3,120.8c0-1-0.8-1.9-1.4-2c-0.5,0-0.9,0.4-0.9,0.9c0,0.8,0.8,1.7,1.5,1.6
	C36.8,121.3,37.1,120.9,37.3,120.8z M30.9,113.8c0-0.6-0.7-1.2-1.2-1.1c-0.3,0-0.6,0.3-0.6,0.6c-0.1,0.5,0.6,1,1.2,1
	C30.5,114.2,30.7,114,30.9,113.8z"/>
<path d="M34.5,115.6c-2.6-3-5.8-4.4-9.8-4.1c-0.2,0-0.4,0.1-0.6,0.1c-1.4,0.4-1.7,1.2-0.7,2.3c0.5,0.6,1.1,1.2,1.8,1.6
	c3.9,2.3,6.4,5.8,8,9.9c3,7.4,8.8,10.3,16.3,10.6c2.9,0.1,5.7-0.3,8.7-0.6c0,0.2,0.1,0.5,0.1,0.9c0,3.9,0.1,7.9,0.1,11.8
	c0,3.5-2.3,5.1-5.6,4c-7-2.4-13.6-5.7-19.5-10.2C17.7,130.2,7.8,114.7,4.6,95.3C0.7,72,6.7,51.2,22.5,33.5
	c11.4-12.7,25.7-20.5,42.6-23c25.1-3.7,46.8,3.6,64.5,21.7C140.3,43,146.8,56.1,149,71.1c3.5,23.3-2.7,43.9-18.5,61.4
	c-8.2,9.1-18.3,15.5-29.9,19.6c-0.5,0.2-1,0.3-1.5,0.3c-2.6,0.2-4.2-1.2-4.2-3.9c0-3.2,0-6.5,0-9.7c0-4,0.1-8.1-0.1-12.1
	c-0.2-4.2-1.4-8-4.4-11.2c-0.1-0.1-0.1-0.2-0.2-0.4c1.1-0.2,2.1-0.3,3.1-0.5c4.2-0.7,8.4-1.7,12.3-3.4c7.9-3.5,13.2-9.4,15.7-17.6
	c1.8-6,2.4-12.2,1.8-18.4c-0.6-5.7-2.8-10.7-6.5-15c-0.6-0.7-0.7-1.2-0.4-2c1.9-5.9,1.3-11.8-0.8-17.6c-0.2-0.7-0.7-0.8-1.3-0.9
	c-2.6-0.1-5.1,0.5-7.5,1.4c-3.8,1.4-7.3,3.4-10.7,5.6c-0.7,0.4-1.2,0.6-2,0.4c-11.6-2.9-23.1-2.9-34.7,0c-0.8,0.2-1.3,0-1.9-0.4
	c-3.4-2.3-7-4.3-10.8-5.7c-2.3-0.8-4.7-1.4-7.2-1.4c-0.8,0-1.3,0.3-1.6,1.1c-2,5.8-2.6,11.6-0.6,17.6c0.3,0.8-0.1,1.3-0.5,1.8
	c-2.8,3.3-4.9,7.1-5.8,11.3c-0.5,2.1-0.8,4.3-0.9,6.4c-0.2,5.2,0.3,10.4,1.9,15.4c2.8,9.1,8.7,15.3,17.6,18.7
	c3.9,1.5,7.9,2.3,12,2.9c0.5,0.1,0.9,0.1,1.7,0.3c-2.7,2.8-4,6.1-4.5,9.7c-3.9,1.8-7.9,2.4-12.2,1.5c-0.1,0.5,0,1-0.2,1.4
	c0,0.2-0.4,0.3-0.6,0.4c-0.8,0.2-1.8-0.2-2.1-0.9c-0.5-0.9,0.5-1.1,0.9-1.6c-3.3-1.6-5.6-4.2-7.4-7.2
	C36.4,117.4,35.3,116.5,34.5,115.6C34.5,115.5,34.5,115.6,34.5,115.6z"/>
<path d="M226,111.3c0-6.4,0-12.7,0-19.2c-0.6,0-1.1,0-1.6,0c-3.3,0-6.5,0-9.8,0c-1.8,0-2.2-0.4-2.2-2.2c0-4.7,0-9.4,0-14.2
	c0-1.6,0.4-2.1,2-2.1c10.1,0,20.1,0,30.2,0c1.7,0,2.2,0.5,2.2,2.1c0,15.6,0,31.3,0,46.9c0,1-0.4,1.7-1.3,2.2
	c-4.7,2.7-9.6,4.6-14.9,5.6c-9.9,1.9-19.7,1.8-29.5-0.9c-11.4-3.1-19.3-10.2-23.7-21.2c-2-5-3.2-10.2-3.7-15.5
	c-0.9-8.2-0.8-16.3,0.3-24.5c0.8-6.3,2.3-12.4,5.1-18.1c5-10.3,13.2-16.5,24.3-19c6.4-1.4,12.9-1.4,19.4-1c5,0.3,9.9,1,14.6,2.5
	c1.5,0.5,3,1.2,4.4,1.9c1.1,0.5,1.2,0.9,0.9,2.1c-1.1,4.7-2.2,9.5-3.3,14.2c-0.3,1.5-1,1.8-2.4,1.3c-6.7-2.3-13.5-2.8-20.5-2.5
	c-3.1,0.1-6.1,0.7-9,1.9c-5.4,2.3-8.8,6.4-10.8,11.8c-1.4,3.8-2.1,7.8-2.4,11.8c-0.4,6.4-0.3,12.7,1,19c0.6,2.7,1.4,5.4,2.7,7.9
	c3.1,6,8,9.2,14.7,9.8c4.1,0.3,8.2,0.1,12.2-0.5C225.3,111.5,225.6,111.4,226,111.3z"/>
<path d="M359.3,69.7c9.3,0,18.4,0,27.6,0c0-0.6,0-1.2,0-1.8c0-10.4,0-20.9,0-31.3c0-0.4,0-0.9,0-1.3c0.1-0.7,0.5-1.2,1.3-1.3
	c0.4,0,0.8-0.1,1.2-0.1c5.2,0,10.5,0,15.7,0c0.4,0,0.8,0,1.2,0.1c0.7,0.1,1.1,0.5,1.3,1.2c0.1,0.5,0.1,1,0.1,1.4
	c0,30.2,0,60.4,0,90.5c0,0.3,0,0.7,0,1c-0.1,1.3-0.6,1.8-1.9,1.8c-5.6,0-11.3,0-16.9,0c-1.5,0-1.9-0.5-1.9-2.2c0-7.7,0-15.3,0-23
	c0-4.8,0-9.5,0-14.3c0-0.5,0-1,0-1.5c-1.1-0.3-25.4-0.4-27.6-0.1c0,0.6,0,1.2,0,1.8c0,12.2,0,24.5,0,36.7c0,2.4-0.2,2.7-2.6,2.7
	c-5.1,0-10.3,0-15.4,0c-0.4,0-0.8,0-1.2,0c-0.8-0.1-1.3-0.6-1.4-1.4c-0.1-0.4,0-0.9,0-1.3c0-30.2,0-60.5,0-90.7c0-0.1,0-0.3,0-0.4
	c0-1.8,0.4-2.2,2.2-2.2c5.4,0,10.8,0,16.2,0c1.9,0,2.2,0.4,2.2,2.3c0,10.5,0,21.1,0,31.6C359.3,68.4,359.3,69,359.3,69.7z"/>
<path d="M506.2,66.8c0.7-0.4,1.2-0.6,1.6-0.8c6.4-3.1,13.1-4.3,20.2-3.2c8.1,1.2,13.5,5.8,16.7,13.3c1.6,3.7,2.4,7.6,2.7,11.6
	c0.7,7,0.4,14-0.6,21c-0.5,3.5-1.4,7-2.8,10.3c-3.1,7.2-8.5,11.4-16.2,12.4c-6.7,0.9-13.2,0.3-19.4-2.3c-2.1-0.9-4-2.1-5.9-3.3
	c-0.4-0.2-0.7-0.5-1.2-0.8c-0.2,1.1-0.3,2-0.5,3c-0.3,1.6-0.7,1.9-2.3,2c-3.7,0-7.3,0-11,0c-1.6,0-2-0.4-2.1-2c0-0.2,0-0.5,0-0.7
	c0-30.1,0-60.3,0-90.4c0-2.7,0.2-2.9,2.8-2.9c5.1,0,10.1,0,15.2,0c0.4,0,0.9,0,1.3,0c0.9,0.1,1.3,0.6,1.4,1.4c0,0.4,0,0.8,0,1.2
	c0,9.5,0,19,0,28.4C506.2,65.5,506.2,66,506.2,66.8z M505.9,112c4.6,2.5,9.3,3.5,14.4,2.6c2.6-0.4,4.4-2,5.3-4.4
	c0.5-1.2,0.8-2.6,1.1-3.9c0.8-4.1,0.7-8.3,0.6-12.5c-0.1-3.1-0.5-6-1.7-8.9c-1.3-2.9-3.5-4.9-6.7-5.3c-4.7-0.6-8.9,0.6-13,2.8
	C505.9,92.3,505.9,102,505.9,112z"/>
<path d="M461.6,125.6c-0.5,0.3-0.9,0.4-1.3,0.6c-4.9,2.8-10.1,4.8-15.7,5.4c-5.3,0.6-10.6,0.4-15.7-1.3c-5.9-1.9-9.7-5.9-11.4-11.8
	c-0.9-3.1-1.2-6.3-1.2-9.6c0-14,0-27.9,0-41.9c0-0.3,0-0.7,0-1c0.1-0.9,0.5-1.3,1.3-1.5c0.3-0.1,0.7,0,1,0c5.3,0,10.7,0,16,0
	c0.2,0,0.5,0,0.7,0c1.1,0.1,1.6,0.6,1.7,1.6c0,0.4,0,0.9,0,1.3c0,12.8,0,25.6,0,38.4c0,1.3,0.1,2.6,0.3,3.9c0.6,3,2.2,4.5,5.2,5
	c4.5,0.7,8.6-0.4,12.5-2.6c0.6-0.3,0.8-0.7,0.8-1.4c0-1.4,0-2.8,0-4.2c0-12.9,0-25.8,0-38.7c0-0.3,0-0.7,0-1c0-1.9,0.4-2.3,2.3-2.3
	c5.3,0,10.7,0,16,0c1.8,0,2.2,0.5,2.2,2.2c0,9.4,0,18.8,0,28.2c0,10.7,0,21.5,0,32.2c0,0.3,0,0.7,0,1c0,1.3-0.5,1.8-1.8,1.9
	c-1.6,0-3.2,0-4.8,0c-1.9,0-3.8,0-5.6,0c-1.5,0-1.8-0.3-2.1-1.8C461.9,127.4,461.8,126.5,461.6,125.6z"/>
<path d="M294.8,81.7c-0.7,0-1.1,0-1.6,0c-2.4,0-4.7,0-7.1,0c-1.5,0-2-0.5-2-2c0-3.5,0-7,0-10.5c0-1.3,0.3-1.7,1.6-2
	c2.6-0.7,5.2-1.3,7.8-1.9c0.4-0.1,0.7-0.2,1.3-0.4c0-0.5,0-1,0-1.5c0-5.2,0-10.3,0-15.5c0-0.4,0-0.8,0-1.2c0-0.6,0.3-0.9,0.9-1
	c0.4,0,0.8,0,1.2,0c5.4,0,10.9,0,16.3,0c0.3,0,0.6,0,0.9,0c0.7,0,1.1,0.3,1.1,1c0,0.4,0,0.9,0,1.3c0,4.9,0,9.7,0,14.6
	c0,0.5,0,1,0,1.6c0.6,0,1.1,0.1,1.6,0.1c3.7,0,7.3,0,11,0c1.7,0,2.1,0.4,2.1,2.1c0,4.3,0,8.7,0,13c0,1.8-0.4,2.2-2.3,2.2
	c-3.6,0-7.1,0-10.7,0c-0.5,0-1,0-1.7,0c0,0.6-0.1,1.1-0.1,1.6c0,8.1,0.1,16.2,0,24.3c0,4,2.1,6.6,6.4,7c1.9,0.2,3.9,0,5.9,0
	c0.4,0,0.8-0.1,1.2-0.1c0.8,0,1.3,0.5,1.5,1.3c0.1,0.3,0.1,0.6,0.1,0.9c0,3.8,0,7.5,0,11.3c0,1.4-0.3,1.8-1.6,2.2
	c-6.4,1.8-12.8,2.1-19.3,0.5c-8-1.9-12.5-7.1-13.9-15.1c-0.4-2.2-0.5-4.5-0.6-6.7c-0.1-8.4,0-16.8,0-25.1
	C294.8,83.1,294.8,82.5,294.8,81.7z"/>
<path d="M277.5,97c0,9.9,0,19.7,0,29.6c0,3.1-0.3,3.4-3.4,3.4c-4.5,0-9,0-13.4,0c-0.4,0-0.9,0-1.3,0c-1.8-0.1-2.5-0.7-2.6-2.6
	c0-0.3,0-0.7,0-1c0-19.6,0-39.3,0-58.9c0-2.3,0.2-3.1,3.1-3.1c5,0.1,10,0,15,0c0.4,0,0.8,0,1.2,0c0.9,0.1,1.3,0.5,1.4,1.4
	c0.1,0.5,0.1,1.1,0.1,1.6C277.5,77.2,277.5,87.1,277.5,97z"/>
<path d="M267.3,36.1c6.3,0,11.4,5.2,11.4,11.6c0,6.4-5.2,11.6-11.6,11.6c-6.3,0-11.4-5.3-11.3-11.6C255.9,41.1,261,36,267.3,36.1z"
	/>
<path d="M41.4,125.5c0,0.5-0.4,0.7-0.9,0.8c-0.8,0-1.8-0.9-1.8-1.7c0-0.6,0.3-0.9,0.9-0.9C40.3,123.6,41.4,124.6,41.4,125.5z"/>
<path d="M57.7,127.2c0.2,0.2,0.7,0.4,0.9,0.8c0.3,0.4-0.2,1-0.9,1.3c-0.7,0.2-1.4,0.3-1.9-0.3c-0.2-0.2-0.3-0.6-0.2-0.9
	C56,127.5,56.7,127.3,57.7,127.2z"/>
<path d="M50.9,129.4c-0.2-0.1-0.5-0.1-0.8-0.3c-0.6-0.4-0.6-1.1,0-1.5c0.3-0.2,0.6-0.3,0.9-0.3c0.8-0.1,1.6,0.4,1.7,1
	C52.7,128.9,52,129.4,50.9,129.4z"/>
<path d="M-1921.1-369.1c-1.2,0.9-3.2,3.4-5.5,3.8c-4.8,0.8-10.3-5.6-10.3-11.2c0-3.9,2.5-6.6,5.9-6.4
	C-1926.3-382.6-1920.8-376-1921.1-369.1z"/>
<path d="M-1940.7-405.3c0.3,1.6,1,3.1,0.9,4.7c-0.1,2.1-0.1,5.4-1.3,6c-1.9,1-5,0.8-7.1-0.1c-1.9-0.8-3.6-3-4.4-5
	c-0.7-1.9-1-4.9,0.1-6.2c1-1.3,4-1.7,6-1.5c2.2,0.2,4.2,1.6,6.3,2.4C-1940.3-404.9-1940.7-405.3-1940.7-405.3z"/>
<path d="M-1965.4-417.1c-1.3,0.8-2.9,2.6-4.8,2.8c-4,0.6-9-3.4-8.2-6.6c0.4-1.6,2.7-3.7,4.5-4
	C-1970.2-425.5-1965.5-421.4-1965.4-417.1z"/>
</svg>
