<?xml version="1.0" encoding="utf-8"?>
<!-- Generator: Adobe Illustrator 27.1.1, SVG Export Plug-In . SVG Version: 6.00 Build 0)  -->
<svg version="1.1" id="Layer_1" xmlns="http://www.w3.org/2000/svg" xmlns:xlink="http://www.w3.org/1999/xlink" x="0px" y="0px"
	 viewBox="0 0 94.2 13.1" style="enable-background:new 0 0 94.2 13.1;" xml:space="preserve">
<g>
	<path d="M10.2,5.6l-2.3,4.6H6.8L4.5,5.6v5.3H2.7V2.5h2.5l2.2,4.6l2.2-4.6h2.5v8.4h-1.9V5.6z"/>
	<path d="M20.1,10.9l-0.8-1.8h-3.5L15,10.9h-2l3.6-8.4h1.8l3.6,8.4H20.1z M17.6,5l-1.1,2.4h2.1L17.6,5z"/>
	<path d="M27.1,2.5h1.4v8.4h-1.4V2.5z"/>
	<path d="M32,7.5v3.5h-1.3V4.5H32v1.2c0.2-0.4,0.5-0.7,0.9-0.9c0.4-0.2,0.8-0.3,1.2-0.3c0.7,0,1.3,0.2,1.7,0.7
		c0.4,0.4,0.7,1.1,0.7,1.9v3.9h-1.3V7.4c0-1.2-0.5-1.8-1.5-1.8c-0.5,0-0.9,0.2-1.2,0.5C32.1,6.4,32,6.9,32,7.5z"/>
	<path d="M39.9,5.6v3.2c0,0.3,0.1,0.5,0.2,0.7c0.2,0.2,0.4,0.3,0.7,0.3s0.6-0.1,0.8-0.4l0.6,0.9c-0.5,0.4-1,0.6-1.6,0.6
		c-0.6,0-1.1-0.2-1.5-0.6c-0.4-0.4-0.6-0.9-0.6-1.6V5.6h-0.8V4.5h0.8v-2h1.3v2h1.7v1.1H39.9z"/>
	<path d="M49.2,8.3h-5c0,0.5,0.2,0.8,0.6,1.1c0.4,0.3,0.8,0.4,1.3,0.4c0.8,0,1.4-0.3,1.8-0.8l0.8,0.8c-0.7,0.7-1.6,1.1-2.7,1.1
		c-0.9,0-1.7-0.3-2.3-0.9s-0.9-1.4-0.9-2.4s0.3-1.8,1-2.4s1.4-0.9,2.3-0.9c0.9,0,1.6,0.3,2.2,0.8c0.6,0.5,0.9,1.2,0.9,2.2V8.3z
		 M44.2,7.3h3.7c0-0.5-0.2-0.9-0.5-1.2c-0.3-0.3-0.8-0.4-1.2-0.4c-0.5,0-0.9,0.2-1.3,0.5C44.4,6.3,44.2,6.8,44.2,7.3z"/>
	<path d="M54.1,5.8c-0.7,0-1.2,0.2-1.5,0.6c-0.3,0.4-0.5,1-0.5,1.7v2.7h-1.3V4.5h1.3v1.3c0.2-0.4,0.5-0.7,0.9-1s0.8-0.4,1.2-0.4
		L54.1,5.8C54.1,5.8,54.1,5.8,54.1,5.8z"/>
	<path d="M56.3,9l-0.8,1.9H54l3.7-8.4h1.5l3.7,8.4h-1.5L60.5,9H56.3z M60,7.7l-1.5-3.5l-1.5,3.5H60z"/>
	<path d="M66.7,11c-0.9,0-1.7-0.3-2.3-0.9c-0.6-0.6-1-1.4-1-2.4c0-1,0.3-1.8,1-2.4c0.7-0.6,1.5-0.9,2.4-0.9s1.8,0.3,2.4,1l-0.8,1
		c-0.6-0.5-1.1-0.7-1.7-0.7c-0.6,0-1,0.2-1.5,0.6s-0.6,0.9-0.6,1.4s0.2,1.1,0.6,1.5s0.9,0.6,1.5,0.6c0.6,0,1.2-0.3,1.7-0.8l0.8,0.9
		C68.6,10.6,67.7,11,66.7,11z"/>
	<path d="M72.4,5.6v3.2c0,0.3,0.1,0.5,0.2,0.7s0.4,0.3,0.7,0.3s0.6-0.1,0.8-0.4l0.6,0.9c-0.5,0.4-1,0.6-1.6,0.6
		c-0.6,0-1.1-0.2-1.5-0.6c-0.4-0.4-0.6-0.9-0.6-1.6V5.6h-0.8V4.5h0.8v-2h1.3v2h1.7v1.1H72.4z"/>
	<path d="M75.9,3.3c-0.2-0.2-0.3-0.4-0.3-0.6s0.1-0.4,0.3-0.6s0.4-0.3,0.6-0.3c0.2,0,0.4,0.1,0.6,0.3s0.3,0.4,0.3,0.6
		s-0.1,0.4-0.3,0.6c-0.2,0.2-0.4,0.3-0.6,0.3C76.2,3.5,76,3.4,75.9,3.3z M77.1,10.9h-1.3V4.5h1.3V10.9z"/>
	<path d="M80.8,10.9l-2.6-6.4h1.4l1.9,4.8l1.9-4.8h1.4l-2.6,6.4H80.8z"/>
	<path d="M91.9,8.3h-5c0,0.5,0.2,0.8,0.6,1.1c0.4,0.3,0.8,0.4,1.3,0.4c0.8,0,1.4-0.3,1.8-0.8l0.8,0.8c-0.7,0.7-1.6,1.1-2.7,1.1
		c-0.9,0-1.7-0.3-2.3-0.9s-0.9-1.4-0.9-2.4s0.3-1.8,1-2.4c0.6-0.6,1.4-0.9,2.3-0.9s1.6,0.3,2.2,0.8c0.6,0.5,0.9,1.2,0.9,2.2V8.3z
		 M86.9,7.3h3.7c0-0.5-0.2-0.9-0.5-1.2c-0.3-0.3-0.8-0.4-1.2-0.4S87.9,5.7,87.5,6C87.1,6.3,86.9,6.8,86.9,7.3z"/>
</g>
</svg>
