<?xml version="1.0" encoding="utf-8"?>
<!-- Generator: Adobe Illustrator 27.1.1, SVG Export Plug-In . SVG Version: 6.00 Build 0)  -->
<svg version="1.1" id="Layer_1" xmlns="http://www.w3.org/2000/svg" xmlns:xlink="http://www.w3.org/1999/xlink" x="0px" y="0px"
	 viewBox="0 0 869.2 402.7" style="enable-background:new 0 0 869.2 402.7;" xml:space="preserve">
<style type="text/css">
	.st0{enable-background:new    ;}
	.st1{fill:none;stroke:#FEE834;stroke-width:8;}
	.st2{fill:#FEE834;}
</style>
<g>
	<g class="st0">
		<path d="M68.4,186.1c-2.5,4.1-6.3,7.2-11.6,9.1c5.2,2,9.1,5,11.6,9.1s3.7,10.3,3.7,18.5v100.7c0,20.1,9.4,30.2,28.3,30.2h10.8v16
			H99.3c-30.6,0-45.9-14.9-45.9-44.8V222.4c0-12.9-5.6-19.4-16.8-19.4h-13v-16h13.1c11.2,0,16.8-6.3,16.8-19V65.4
			c0-29.8,15.3-44.8,45.9-44.8h11.9v16h-10.8c-18.9,0-28.3,10.1-28.3,30.2v100.7C72.1,175.8,70.9,182,68.4,186.1z"/>
	</g>
	<g class="st0">
		<path class="st1" d="M68.4,186.1c-2.5,4.1-6.3,7.2-11.6,9.1c5.2,2,9.1,5,11.6,9.1s3.7,10.3,3.7,18.5v100.7
			c0,20.1,9.4,30.2,28.3,30.2h10.8v16H99.3c-30.6,0-45.9-14.9-45.9-44.8V222.4c0-12.9-5.6-19.4-16.8-19.4h-13v-16h13.1
			c11.2,0,16.8-6.3,16.8-19V65.4c0-29.8,15.3-44.8,45.9-44.8h11.9v16h-10.8c-18.9,0-28.3,10.1-28.3,30.2v100.7
			C72.1,175.8,70.9,182,68.4,186.1z"/>
	</g>
	<g class="st0">
		<path d="M385.4,133.3l-70.5,142.5h-34.7l-70.1-142.5v164.1h-58.2V36.7h78.7l67.1,143.2l67.5-143.2h78.3v260.7h-58.2V133.3H385.4z"
			/>
		<path d="M693.5,297.4l-24.2-56.3H560l-24.2,56.3h-61.9L586.5,36.7h56.3l112.6,260.7L693.5,297.4L693.5,297.4z M614.8,114.3
			L582,190h65.3L614.8,114.3z"/>
	</g>
	<g class="st0">
		<path class="st1" d="M385.4,133.3l-70.5,142.5h-34.7l-70.1-142.5v164.1h-58.2V36.7h78.7l67.1,143.2l67.5-143.2h78.3v260.7h-58.2
			V133.3H385.4z"/>
		<path class="st1" d="M693.5,297.4l-24.2-56.3H560l-24.2,56.3h-61.9L586.5,36.7h56.3l112.6,260.7L693.5,297.4L693.5,297.4z
			 M614.8,114.3L582,190h65.3L614.8,114.3z"/>
	</g>
	<g class="st0">
		<path d="M849.8,187v16h-13.1c-10.9,0-16.4,6.5-16.4,19.4V325c0,29.8-15.4,44.8-46.3,44.8h-11.9v-16H773
			c19.1,0,28.7-10.1,28.7-30.2V222.8c0-8.2,1.2-14.4,3.5-18.5c2.4-4.1,6.3-7.1,11.7-9.1c-5.5-2-9.4-5-11.7-9.1
			c-2.4-4.1-3.5-10.3-3.5-18.5V66.9c0-20.1-9.6-30.2-28.7-30.2h-10.8v-16h11.9c30.8,0,46.3,14.9,46.3,44.8V168
			c0,12.7,5.5,19,16.4,19H849.8z"/>
	</g>
	<g class="st0">
		<path class="st1" d="M849.8,187v16h-13.1c-10.9,0-16.4,6.5-16.4,19.4V325c0,29.8-15.4,44.8-46.3,44.8h-11.9v-16H773
			c19.1,0,28.7-10.1,28.7-30.2V222.8c0-8.2,1.2-14.4,3.5-18.5c2.4-4.1,6.3-7.1,11.7-9.1c-5.5-2-9.4-5-11.7-9.1
			c-2.4-4.1-3.5-10.3-3.5-18.5V66.9c0-20.1-9.6-30.2-28.7-30.2h-10.8v-16h11.9c30.8,0,46.3,14.9,46.3,44.8V168
			c0,12.7,5.5,19,16.4,19H849.8z"/>
	</g>
	<g class="st0">
		<path class="st2" d="M169,328.4h10.4v56H169V328.4z"/>
		<path class="st2" d="M244.3,328.4v56h-8.6l-30.9-37.9v37.9h-10.3v-56h8.6l30.9,37.9v-37.9H244.3z"/>
		<path class="st2" d="M270.7,337.2h-18.6v-8.8h47.5v8.8H281v47.2h-10.4v-47.2H270.7z"/>
		<path class="st2" d="M349.5,375.7v8.7h-42v-56h40.9v8.7h-30.5v14.6h27v8.6h-27v15.4L349.5,375.7L349.5,375.7z"/>
		<path class="st2" d="M397.7,384.4L386.3,368c-0.5,0.1-1.2,0.1-2.2,0.1h-12.6v16.3h-10.4v-56h23c4.9,0,9.1,0.8,12.7,2.4
			s6.4,3.9,8.3,6.9s2.9,6.5,2.9,10.6c0,4.2-1,7.8-3.1,10.9c-2.1,3-5,5.3-8.8,6.8l12.9,18.4L397.7,384.4L397.7,384.4z M394,340.1
			c-2.3-1.9-5.8-2.9-10.3-2.9h-12.2v22.3h12.2c4.5,0,8-1,10.3-2.9s3.5-4.7,3.5-8.3C397.5,344.8,396.3,342,394,340.1z"/>
		<path class="st2" d="M455.9,371.5h-28l-5.5,13h-10.7l25.2-56h10.2l25.3,56h-10.9L455.9,371.5z M452.4,363.3l-10.6-24.5l-10.5,24.5
			H452.4z"/>
		<path class="st2" d="M489.3,381.5c-4.6-2.5-8.1-5.9-10.7-10.3s-3.9-9.3-3.9-14.8s1.3-10.4,3.9-14.8s6.2-7.8,10.8-10.3
			c4.6-2.5,9.7-3.7,15.3-3.7c4.6,0,8.8,0.8,12.6,2.4s7,3.9,9.6,7l-6.7,6.3c-4.1-4.4-9-6.6-15-6.6c-3.8,0-7.3,0.8-10.3,2.5
			s-5.4,4-7.1,7s-2.6,6.4-2.6,10.2c0,3.8,0.9,7.2,2.6,10.2s4.1,5.3,7.1,7s6.5,2.5,10.3,2.5c5.9,0,10.9-2.2,15-6.6l6.7,6.4
			c-2.6,3-5.8,5.4-9.6,7s-8,2.4-12.6,2.4C499,385.2,493.8,384,489.3,381.5z"/>
		<path class="st2" d="M547.6,337.2H529v-8.8h47.5v8.8H558v47.2h-10.4V337.2z"/>
		<path class="st2" d="M584.4,328.4h10.4v56h-10.4V328.4z"/>
		<path class="st2" d="M660.7,328.4l-24.4,56H626l-24.5-56h11.3l18.6,43.2l18.8-43.2H660.7z"/>
		<path class="st2" d="M708.6,375.7v8.7h-42v-56h40.9v8.7H677v14.6h27v8.6h-27v15.4L708.6,375.7L708.6,375.7z"/>
	</g>
</g>
</svg>
