<?xml version="1.0" encoding="utf-8"?>
<!-- Generator: Adobe Illustrator 27.1.1, SVG Export Plug-In . SVG Version: 6.00 Build 0)  -->
<svg version="1.1" id="Layer_1" xmlns="http://www.w3.org/2000/svg" xmlns:xlink="http://www.w3.org/1999/xlink" x="0px" y="0px"
	 viewBox="0 0 856.2 400.1" style="enable-background:new 0 0 856.2 400.1;" xml:space="preserve">
<style type="text/css">
	.st0{font-family:'Montserrat-Light';}
	.st1{font-size:373px;}
	.st2{enable-background:new    ;}
	.st3{fill:none;stroke:#FEE834;stroke-width:8;}
	.st4{font-family:'Montserrat-Bold';}
	.st5{fill:#FEE834;}
</style>
<text transform="matrix(1 0 0 1 -8.1797 297.4138)" class="st0 st1">{</text>
<g class="st2">
	<path class="st3" d="M59.7,186.1c-2.5,4.1-6.3,7.2-11.6,9.1c5.2,2,9.1,5,11.6,9.1c2.5,4.1,3.7,10.3,3.7,18.5v100.7
		c0,20.1,9.4,30.2,28.3,30.2h10.8v16H90.7c-30.6,0-45.9-14.9-45.9-44.8V222.4c0-12.9-5.6-19.4-16.8-19.4H14.9v-16H28
		c11.2,0,16.8-6.3,16.8-19V65.4c0-29.8,15.3-44.8,45.9-44.8h11.9v16H91.8c-18.9,0-28.3,10.1-28.3,30.2v100.7
		C63.4,175.8,62.2,182,59.7,186.1z"/>
</g>
<text transform="matrix(1 0 0 1 111.1773 297.4138)" class="st4 st1">MA</text>
<g class="st2">
	<path class="st3" d="M376.8,133.3l-70.5,142.5h-34.7l-70.1-142.5v164.1h-58.2V36.7H222l67.1,143.2l67.5-143.2h78.3v260.7h-58.2
		V133.3z"/>
	<path class="st3" d="M684.8,297.4l-24.2-56.3H551.3l-24.2,56.3h-61.9L577.8,36.7h56.3l112.6,260.7H684.8z M606.1,114.3L573.3,190
		h65.3L606.1,114.3z"/>
</g>
<text transform="matrix(1 0 0 1 744.9006 297.4138)" class="st0 st1">}</text>
<g class="st2">
	<path class="st3" d="M841.1,187v16h-13.1c-10.9,0-16.4,6.5-16.4,19.4V325c0,29.8-15.4,44.8-46.3,44.8h-11.9v-16h10.8
		c19.1,0,28.7-10.1,28.7-30.2V222.8c0-8.2,1.2-14.4,3.5-18.5c2.4-4.1,6.3-7.1,11.7-9.1c-5.5-2-9.4-5-11.7-9.1
		c-2.4-4.1-3.5-10.3-3.5-18.5V66.9c0-20.1-9.6-30.2-28.7-30.2h-10.8v-16h11.9c30.8,0,46.3,14.9,46.3,44.8V168c0,12.7,5.5,19,16.4,19
		H841.1z"/>
</g>
<g class="st2">
	<path class="st5" d="M210,319.8h10.4v56H210V319.8z"/>
	<path class="st5" d="M271.7,337.3c3.3,3.1,4.9,7.8,4.9,14v24.5h-10v-23.2c0-3.7-0.9-6.5-2.6-8.4c-1.8-1.9-4.3-2.8-7.5-2.8
		c-3.7,0-6.6,1.1-8.7,3.3c-2.1,2.2-3.2,5.4-3.2,9.6v21.6h-10V333h9.5v5.5c1.7-2,3.7-3.5,6.2-4.5c2.5-1,5.3-1.5,8.5-1.5
		C264.1,332.6,268.5,334.1,271.7,337.3z"/>
	<path class="st5" d="M315,373.4c-1.2,1-2.6,1.7-4.3,2.2c-1.7,0.5-3.5,0.7-5.3,0.7c-4.7,0-8.3-1.2-10.9-3.7c-2.6-2.5-3.8-6-3.8-10.7
		v-20.6h-7v-8h7v-9.8h10v9.8h11.4v8h-11.4v20.3c0,2.1,0.5,3.7,1.5,4.8c1,1.1,2.5,1.6,4.4,1.6c2.2,0,4.1-0.6,5.6-1.8L315,373.4z"/>
	<path class="st5" d="M361.8,357.6h-33.5c0.6,3.1,2.1,5.6,4.6,7.5c2.5,1.8,5.6,2.8,9.2,2.8c4.7,0,8.6-1.5,11.6-4.6l5.4,6.2
		c-1.9,2.3-4.3,4-7.3,5.2c-2.9,1.2-6.2,1.8-9.9,1.8c-4.7,0-8.8-0.9-12.4-2.8c-3.6-1.9-6.3-4.5-8.3-7.8c-1.9-3.3-2.9-7.1-2.9-11.3
		c0-4.2,0.9-7.9,2.8-11.2c1.9-3.3,4.5-5.9,7.9-7.8c3.4-1.9,7.1-2.8,11.4-2.8c4.2,0,7.9,0.9,11.2,2.8c3.3,1.8,5.8,4.4,7.7,7.8
		s2.8,7.2,2.8,11.6C362,355.3,361.9,356.3,361.8,357.6z M332.2,343.4c-2.2,1.9-3.6,4.4-4,7.6h24.2c-0.4-3.1-1.7-5.6-3.9-7.5
		c-2.2-1.9-4.9-2.9-8.2-2.9C337.2,340.6,334.5,341.5,332.2,343.4z"/>
	<path class="st5" d="M396.3,332.6v9.5c-0.9-0.2-1.6-0.2-2.3-0.2c-3.9,0-6.9,1.1-9.1,3.4c-2.2,2.3-3.3,5.5-3.3,9.8v20.7h-10V333h9.5
		v6.2C384,334.8,389,332.6,396.3,332.6z"/>
	<path class="st5" d="M439.1,362.8h-28l-5.5,13h-10.7l25.2-56h10.2l25.3,56h-10.9L439.1,362.8z M435.6,354.6l-10.6-24.5l-10.5,24.5
		H435.6z"/>
	<path class="st5" d="M469,373.5c-3.5-1.9-6.3-4.5-8.2-7.8c-2-3.3-3-7.1-3-11.3c0-4.2,1-8,3-11.3c2-3.3,4.7-5.9,8.2-7.8
		c3.5-1.9,7.5-2.8,12-2.8c4.2,0,7.9,0.9,11.1,2.6c3.2,1.7,5.6,4.2,7.2,7.4l-7.7,4.5c-1.2-2-2.8-3.5-4.6-4.4c-1.8-1-3.9-1.5-6-1.5
		c-3.7,0-6.8,1.2-9.3,3.6c-2.5,2.4-3.7,5.7-3.7,9.7c0,4.1,1.2,7.3,3.6,9.7c2.4,2.4,5.5,3.6,9.3,3.6c2.2,0,4.2-0.5,6-1.5
		c1.8-1,3.4-2.5,4.6-4.4l7.7,4.5c-1.7,3.2-4.1,5.7-7.2,7.4c-3.2,1.7-6.8,2.6-11,2.6C476.5,376.3,472.5,375.4,469,373.5z"/>
	<path class="st5" d="M534,373.4c-1.2,1-2.6,1.7-4.3,2.2c-1.7,0.5-3.5,0.7-5.3,0.7c-4.7,0-8.3-1.2-10.9-3.7c-2.6-2.5-3.8-6-3.8-10.7
		v-20.6h-7v-8h7v-9.8h10v9.8h11.4v8h-11.4v20.3c0,2.1,0.5,3.7,1.5,4.8c1,1.1,2.5,1.6,4.4,1.6c2.2,0,4.1-0.6,5.6-1.8L534,373.4z"/>
	<path class="st5" d="M542.8,324.3c-1.2-1.1-1.8-2.6-1.8-4.3c0-1.7,0.6-3.1,1.8-4.3c1.2-1.1,2.7-1.7,4.6-1.7c1.8,0,3.3,0.5,4.6,1.6
		c1.2,1.1,1.8,2.5,1.8,4.1c0,1.8-0.6,3.2-1.8,4.4c-1.2,1.2-2.7,1.8-4.6,1.8C545.5,326,544,325.4,542.8,324.3z M542.3,333h10v42.7
		h-10V333z"/>
	<path class="st5" d="M605.4,333l-18.3,42.7h-10.3L558.4,333h10.4l13.3,31.7l13.7-31.7H605.4z"/>
	<path class="st5" d="M650.4,357.6h-33.5c0.6,3.1,2.1,5.6,4.6,7.5c2.5,1.8,5.6,2.8,9.2,2.8c4.7,0,8.6-1.5,11.6-4.6l5.4,6.2
		c-1.9,2.3-4.3,4-7.3,5.2c-2.9,1.2-6.2,1.8-9.9,1.8c-4.7,0-8.8-0.9-12.4-2.8c-3.6-1.9-6.3-4.5-8.3-7.8c-1.9-3.3-2.9-7.1-2.9-11.3
		c0-4.2,0.9-7.9,2.8-11.2c1.9-3.3,4.5-5.9,7.9-7.8c3.4-1.9,7.1-2.8,11.4-2.8c4.2,0,7.9,0.9,11.2,2.8c3.3,1.8,5.8,4.4,7.7,7.8
		s2.8,7.2,2.8,11.6C650.6,355.3,650.5,356.3,650.4,357.6z M620.9,343.4c-2.2,1.9-3.6,4.4-4,7.6h24.2c-0.4-3.1-1.7-5.6-3.9-7.5
		c-2.2-1.9-4.9-2.9-8.2-2.9C625.8,340.6,623.1,341.5,620.9,343.4z"/>
</g>
</svg>
