<?xml version="1.0" encoding="utf-8"?>
<!-- Generator: Adobe Illustrator 27.1.1, SVG Export Plug-In . SVG Version: 6.00 Build 0)  -->
<svg version="1.1" id="Layer_1" xmlns="http://www.w3.org/2000/svg" xmlns:xlink="http://www.w3.org/1999/xlink" x="0px" y="0px"
	 viewBox="0 0 58.4 7.7" style="enable-background:new 0 0 58.4 7.7;" xml:space="preserve">
<style type="text/css">
	.st0{clip-path:url(#SVGID_00000006671511812960115770000013935888410744417669_);fill:#FFFFFF;}
	.st1{clip-path:url(#SVGID_00000006671511812960115770000013935888410744417669_);}
	.st2{clip-path:url(#SVGID_00000161606970850790371390000011206854680443310211_);fill:#FFFFFF;}
</style>
<g id="Vector_Smart_Object_00000052784260003993118650000013950156924865910695_">
	<g>
		<defs>
			<rect id="SVGID_1_" x="2" y="1.8" width="55.3" height="5"/>
		</defs>
		<clipPath id="SVGID_00000037662144979226655770000000679385512847715510_">
			<use xlink:href="#SVGID_1_"  style="overflow:visible;"/>
		</clipPath>
		<polygon style="clip-path:url(#SVGID_00000037662144979226655770000000679385512847715510_);fill:#FFFFFF;" points="7.5,1.9 
			5.3,4.7 3,1.9 2,1.9 2,6.6 2.8,6.6 2.8,2.8 2.8,2.8 5.2,5.8 7.7,2.8 7.7,2.8 7.7,6.6 8.5,6.6 8.5,1.9 		"/>
		<g style="clip-path:url(#SVGID_00000037662144979226655770000000679385512847715510_);">
			<defs>
				<rect id="SVGID_00000040533383173679236570000010228475025385301153_" x="2" y="1.8" width="55.3" height="5"/>
			</defs>
			<clipPath id="SVGID_00000025412808452004225910000017955692203678688439_">
				<use xlink:href="#SVGID_00000040533383173679236570000010228475025385301153_"  style="overflow:visible;"/>
			</clipPath>
			<path style="clip-path:url(#SVGID_00000025412808452004225910000017955692203678688439_);fill:#FFFFFF;" d="M18.4,4.2
				c0,0.8-0.3,1.4-0.9,1.9c-0.6,0.4-1.2,0.6-2.1,0.6c-0.8,0-1.5-0.2-2.1-0.6c-0.6-0.5-0.9-1.1-0.9-1.9c0-0.7,0.3-1.4,1-1.8
				c0.6-0.4,1.2-0.6,2.1-0.6c0.8,0,1.5,0.2,2,0.6C18.1,2.9,18.4,3.5,18.4,4.2 M17.6,4.2c0-0.5-0.2-1-0.7-1.3
				c-0.4-0.3-0.9-0.4-1.5-0.4c-0.6,0-1.2,0.2-1.6,0.5c-0.4,0.3-0.6,0.8-0.6,1.3c0,0.5,0.2,1,0.6,1.3C14.2,5.8,14.7,6,15.4,6
				C16,6,16.6,5.8,17,5.5C17.4,5.2,17.6,4.8,17.6,4.2"/>
			<polygon style="clip-path:url(#SVGID_00000025412808452004225910000017955692203678688439_);fill:#FFFFFF;" points="26.9,2.6 
				24.6,2.6 24.6,6.6 23.8,6.6 23.8,2.6 21.6,2.6 21.6,1.9 26.9,1.9 			"/>
			
				<rect x="30.3" y="1.9" style="clip-path:url(#SVGID_00000025412808452004225910000017955692203678688439_);fill:#FFFFFF;" width="0.8" height="4.7"/>
			<polygon style="clip-path:url(#SVGID_00000025412808452004225910000017955692203678688439_);fill:#FFFFFF;" points="40.4,1.9 
				37.9,6.6 37,6.6 34.5,1.9 35.4,1.9 37.5,5.8 39.6,1.9 			"/>
			<polygon style="clip-path:url(#SVGID_00000025412808452004225910000017955692203678688439_);fill:#FFFFFF;" points="48.7,6.6 
				43.8,6.6 43.8,1.9 48.5,1.9 48.5,2.6 44.6,2.6 44.6,3.8 47.3,3.8 47.3,4.5 44.6,4.5 44.6,5.9 48.7,5.9 			"/>
			<path style="clip-path:url(#SVGID_00000025412808452004225910000017955692203678688439_);fill:#FFFFFF;" d="M56.6,3
				c-0.7-0.4-1.4-0.5-2.1-0.5c-0.5,0-0.8,0.1-1.1,0.2C53.1,2.8,53,2.9,53,3.1c0,0.2,0.1,0.4,0.4,0.5c0.2,0.1,0.5,0.1,0.9,0.1
				c0.6,0,1.1,0.1,1.3,0.1c0.6,0.1,1,0.2,1.3,0.4c0.3,0.2,0.4,0.5,0.4,0.9c0,0.5-0.2,0.9-0.7,1.1c-0.4,0.3-1.1,0.4-1.9,0.4
				c-1.2,0-2.1-0.3-2.8-0.8l0.4-0.6C53.2,5.8,53.9,6,54.8,6c0.5,0,1-0.1,1.3-0.2c0.3-0.1,0.4-0.3,0.4-0.6c0-0.3-0.2-0.5-0.6-0.6
				c-0.2-0.1-0.7-0.1-1.6-0.2c-0.8-0.1-1.3-0.2-1.6-0.3c-0.4-0.2-0.5-0.5-0.5-0.9c0-0.4,0.2-0.8,0.6-1c0.4-0.3,1-0.4,1.7-0.4
				c1,0,1.9,0.2,2.5,0.7L56.6,3z"/>
		</g>
	</g>
</g>
</svg>
