<?xml version="1.0" encoding="utf-8"?>
<!-- Generator: Adobe Illustrator 27.1.1, SVG Export Plug-In . SVG Version: 6.00 Build 0)  -->
<svg version="1.1" id="Layer_1" xmlns="http://www.w3.org/2000/svg" xmlns:xlink="http://www.w3.org/1999/xlink" x="0px" y="0px"
	 viewBox="0 0 111.7 52.4" style="enable-background:new 0 0 111.7 52.4;" xml:space="preserve">
<style type="text/css">
	.st0{fill:#FFFFFF;}
</style>
<g>
	<path class="st0" d="M100.8,13c0-0.4,0.1-0.9,0.3-1.2c0.2-0.4,0.5-0.7,0.9-0.9c0.4-0.2,0.8-0.3,1.3-0.3c0.5,0,0.9,0.1,1.3,0.3
		c0.4,0.2,0.7,0.5,0.9,0.9c0.2,0.4,0.3,0.8,0.3,1.2c0,0.5-0.1,0.9-0.3,1.3c-0.2,0.4-0.5,0.7-0.9,0.9c-0.4,0.2-0.8,0.3-1.2,0.3
		c-0.4,0-0.9-0.1-1.3-0.3s-0.7-0.5-0.9-0.9C100.9,13.8,100.8,13.4,100.8,13z M101.2,13c0,0.4,0.1,0.7,0.3,1c0.2,0.3,0.4,0.6,0.7,0.7
		c0.3,0.2,0.6,0.3,1,0.3c0.4,0,0.7-0.1,1-0.3s0.6-0.4,0.7-0.7c0.2-0.3,0.3-0.7,0.3-1c0-0.4-0.1-0.7-0.3-1c-0.2-0.3-0.4-0.6-0.8-0.7
		c-0.3-0.2-0.7-0.3-1-0.3c-0.4,0-0.7,0.1-1,0.3c-0.3,0.2-0.6,0.4-0.7,0.7C101.3,12.3,101.2,12.6,101.2,13z M103.5,11.7
		c0.2,0,0.4,0.1,0.6,0.2c0.2,0.1,0.2,0.3,0.2,0.5c0,0.2-0.1,0.4-0.2,0.5c-0.1,0.1-0.3,0.2-0.5,0.2v0c0.1,0,0.2,0.1,0.3,0.2
		c0.1,0.1,0.2,0.2,0.3,0.5l0.3,0.5h-0.6l-0.1-0.2c-0.1-0.2-0.2-0.4-0.3-0.5c-0.1-0.1-0.2-0.2-0.2-0.3c-0.1,0-0.2-0.1-0.3-0.1h-0.2
		v1.1h-0.5v-2.7H103.5z M103.3,12.8c0.2,0,0.3,0,0.4-0.1c0.1-0.1,0.1-0.2,0.1-0.3c0-0.1,0-0.2-0.1-0.3c-0.1-0.1-0.2-0.1-0.4-0.1
		h-0.6v0.8H103.3z"/>
	<path class="st0" d="M29.8,6.7c-18,18-5.5,35.5,0.1,42C15.7,29.6,29.8,6.7,29.8,6.7z"/>
	<ellipse class="st0" cx="18.5" cy="9.3" rx="4" ry="5.6"/>
	<path class="st0" d="M12.2,28.6c0.1,6.4-1.4,13.4-6.3,20C11.5,42,24,24.5,6,6.6C6,6.6,12.1,16.4,12.2,28.6z"/>
	<polygon class="st0" points="31.4,12.6 43,12.6 43,45.6 44.7,45.6 44.7,12.6 56.4,12.6 56.4,10.9 31.4,10.9 	"/>
	<polygon class="st0" points="60,10.9 58.2,10.9 58.2,45.5 78.1,45.5 78.1,43.7 60,43.7 	"/>
	<path class="st0" d="M90,27.3c-5.1-0.5-10-1-10.4-6.6c-0.1-1.9,0.3-3.5,1.4-4.8c2-2.6,5.7-3.6,8.4-3.6l0.2,0c3.2,0,6.1,1.1,7.8,2.9
		c0.9,1,1.4,2.1,1.7,3.4l0.1,0.9l1.7-0.3l-0.1-0.9c-1-5.3-6.3-7.7-11.2-7.7c-4.2,0-8,1.6-10.1,4.3c-1.3,1.7-1.9,3.8-1.7,6
		c0.5,7.1,6.5,7.7,11.9,8.2c4.7,0.5,9.2,0.9,10.1,5.3c0.5,2.3,0,4.4-1.4,6.1c-1.9,2.3-5.3,3.8-8.9,3.8c-4.6,0-9.7-2.5-10.2-7.2
		l-0.1-0.8l-1.8,0.2l0.1,0.8c0.6,5.6,6.6,8.7,11.9,8.7c4.2,0,8.2-1.7,10.4-4.5c1.7-2.1,2.3-4.7,1.7-7.5
		C100.4,28.3,95.1,27.8,90,27.3z"/>
</g>
</svg>
